# xmcd
#
# Track frame offsets:
#	150
#	21182
#	38970
#	59680
#	77670
#	96220
#	113107
#	127477
#	140887
#	154592
#	169605
#
# Disc length: 2517 seconds
# Revision: 9
# Processed by: cddbd v1.5.2PL0 Copyright (c) Steve Scherf et al.
# Submitted via: dBpowerAMP V12.0
#
DISCID=9b09d30b
DTITLE=Dolly Parton - Treasures
DYEAR=1996
DGENRE=Country
TTITLE0=Peace Train
TTITLE1=Today I Started Loving You Again
TTITLE2=Just When I Needed You Most
TTITLE3=Something's Burning
TTITLE4=Before The Next Teardrop Falls
TTITLE5=After The Gold Rush
TTITLE6=Walking On Sunshine
TTITLE7=Behind Closed Doors
TTITLE8=Don't Let Me Cross Over
TTITLE9=Satin Sheets
TTITLE10=For The Good Times
EXTD=
EXTT0=
EXTT1=
EXTT2=
EXTT3=
EXTT4=
EXTT5=
EXTT6=
EXTT7=
EXTT8=
EXTT9=
EXTT10=
PLAYORDER=
